<svg width="64" height="64" viewBox="0 0 64 64" fill="none" xmlns="http://www.w3.org/2000/svg">
<path d="M31.9997 8C17.333 8 5.33301 17.6 5.33301 29.3333C5.33301 35.2 8.26634 40.5333 12.7997 44C12.7997 45.6 11.733 49.8667 5.33301 56C11.733 55.7333 17.5997 53.3333 22.6663 49.3333C25.5997 50.1333 28.7997 50.6667 31.9997 50.6667C46.6663 50.6667 58.6663 41.0667 58.6663 29.3333C58.6663 17.6 46.6663 8 31.9997 8ZM31.9997 45.3333C20.2663 45.3333 10.6663 38.1333 10.6663 29.3333C10.6663 20.5333 20.2663 13.3333 31.9997 13.3333C43.733 13.3333 53.333 20.5333 53.333 29.3333C53.333 38.1333 43.733 45.3333 31.9997 45.3333ZM32.533 17.3333C30.133 17.3333 28.2663 17.8667 26.933 18.6667C25.333 19.7333 24.533 21.3333 24.7997 23.2H30.133C30.133 22.4 30.3997 21.8667 30.933 21.6C31.4663 21.3333 31.9997 21.0667 32.7997 21.0667C33.5997 21.0667 34.3997 21.3333 34.933 21.8667C35.4663 22.4 35.733 22.9333 35.733 23.7333C35.733 24.5333 35.4663 25.0667 35.1997 25.6C34.6663 26.1333 34.133 26.6667 33.5997 26.9333C32.2663 27.7333 31.1997 28.5333 30.6663 29.0667C29.5997 29.8667 29.333 30.6667 29.333 32H34.6663C34.6663 31.2 34.933 30.6667 34.933 30.1333C35.1997 29.6 35.733 29.3333 36.2663 28.8C37.5997 28.2667 38.3997 27.4667 39.1997 26.4C39.9997 25.3333 40.2663 24.2667 40.2663 23.2C40.2663 21.3333 39.4663 19.7333 38.133 18.6667C37.0663 17.8667 34.933 17.3333 32.533 17.3333ZM29.333 34.6667V40H34.6663V34.6667H29.333Z" fill="#2997EE"/>
</svg>
