<svg width="32" height="32" viewBox="0 0 32 32" fill="none" xmlns="http://www.w3.org/2000/svg">
<path fill-rule="evenodd" clip-rule="evenodd" d="M6.82667 3.26188e-06C5.92993 -0.000873743 5.04182 0.175105 4.21318 0.517866C3.38453 0.860627 2.63162 1.36344 1.99753 1.99753C1.36344 2.63162 0.860627 3.38453 0.517866 4.21318C0.175105 5.04182 -0.000873743 5.92993 3.26188e-06 6.82667V32H25.1733C26.0701 32.0009 26.9582 31.8249 27.7868 31.4821C28.6155 31.1394 29.3684 30.6366 30.0025 30.0025C30.6366 29.3684 31.1394 28.6155 31.4821 27.7868C31.8249 26.9582 32.0009 26.0701 32 25.1733V3.26188e-06H6.82667ZM6.86667 9.84667C6.26748 9.84799 5.68139 9.67143 5.18264 9.33936C4.68389 9.00729 4.29492 8.53466 4.06501 7.98134C3.8351 7.42802 3.7746 6.81891 3.89118 6.23117C4.00775 5.64343 4.29614 5.10352 4.71983 4.67983C5.14352 4.25615 5.68343 3.96775 6.27117 3.85118C6.8589 3.7346 7.46802 3.7951 8.02134 4.02501C8.57466 4.25492 9.04729 4.64389 9.37936 5.14264C9.71143 5.64139 9.88799 6.22748 9.88667 6.82667C9.88667 7.62762 9.56849 8.39577 9.00213 8.96213C8.43577 9.52849 7.66762 9.84667 6.86667 9.84667ZM16.04 28.2C15.4414 28.2 14.8562 28.0225 14.3585 27.6899C13.8607 27.3573 13.4728 26.8846 13.2437 26.3316C13.0146 25.7785 12.9547 25.17 13.0715 24.5829C13.1883 23.9957 13.4765 23.4564 13.8998 23.0332C14.3231 22.6099 14.8624 22.3216 15.4495 22.2048C16.0366 22.088 16.6452 22.148 17.1983 22.3771C17.7513 22.6061 18.224 22.9941 18.5566 23.4918C18.8892 23.9895 19.0667 24.5747 19.0667 25.1733C19.0675 25.571 18.9899 25.965 18.8381 26.3326C18.6863 26.7002 18.4634 27.0342 18.1821 27.3155C17.9009 27.5967 17.5669 27.8196 17.1993 27.9714C16.8317 28.1232 16.4377 28.2009 16.04 28.2ZM16.04 19.02C15.443 19.0187 14.8598 18.8404 14.364 18.5078C13.8682 18.1752 13.4822 17.703 13.2546 17.1511C13.0271 16.5991 12.9682 15.9921 13.0855 15.4068C13.2028 14.8214 13.4909 14.2839 13.9136 13.8622C14.3362 13.4405 14.8743 13.1535 15.4599 13.0376C16.0456 12.9216 16.6525 12.9818 17.2039 13.2105C17.7554 13.4393 18.2266 13.8264 18.5582 14.3229C18.8897 14.8194 19.0667 15.403 19.0667 16C19.0667 16.3972 18.9883 16.7904 18.8361 17.1572C18.684 17.5241 18.4609 17.8573 18.1798 18.1378C17.8986 18.4183 17.5649 18.6407 17.1978 18.792C16.8306 18.9434 16.4372 19.0209 16.04 19.02ZM16.04 9.84667C15.4411 9.84667 14.8557 9.66899 14.3578 9.33612C13.8599 9.00325 13.472 8.53015 13.2431 7.97671C13.0142 7.42327 12.9547 6.81437 13.072 6.22707C13.1893 5.63978 13.4782 5.10049 13.9022 4.67747C14.3261 4.25445 14.8661 3.96671 15.4536 3.85068C16.0412 3.73465 16.6499 3.79554 17.2029 4.02564C17.7558 4.25575 18.2281 4.64472 18.5598 5.14333C18.8916 5.64194 19.068 6.22777 19.0667 6.82667C19.0667 7.22382 18.9883 7.61708 18.8361 7.98391C18.684 8.35075 18.4609 8.68397 18.1798 8.96449C17.8986 9.24501 17.5649 9.46732 17.1978 9.6187C16.8306 9.77008 16.4372 9.84755 16.04 9.84667ZM25.22 28.2C24.6211 28.2013 24.0353 28.0249 23.5367 27.6932C23.038 27.3614 22.6491 26.8891 22.419 26.3362C22.1889 25.7833 22.128 25.1745 22.244 24.587C22.36 23.9994 22.6478 23.4595 23.0708 23.0355C23.4938 22.6116 24.0331 22.3226 24.6204 22.2053C25.2077 22.088 25.8166 22.1475 26.37 22.3764C26.9235 22.6053 27.3966 22.9932 27.7294 23.4911C28.0623 23.989 28.24 24.5744 28.24 25.1733C28.24 25.9749 27.922 26.7437 27.3559 27.3112C26.7897 27.8786 26.0216 28.1982 25.22 28.2ZM25.22 9.84667C24.6208 9.84799 24.0347 9.67143 23.536 9.33936C23.0372 9.00729 22.6482 8.53466 22.4183 7.98134C22.1884 7.42802 22.1279 6.81891 22.2445 6.23117C22.3611 5.64343 22.6495 5.10352 23.0732 4.67983C23.4968 4.25615 24.0368 3.96775 24.6245 3.85118C25.2122 3.7346 25.8213 3.7951 26.3747 4.02501C26.928 4.25492 27.4006 4.64389 27.7327 5.14264C28.0648 5.64139 28.2413 6.22748 28.24 6.82667C28.24 7.22326 28.1619 7.61597 28.0101 7.98237C27.8583 8.34878 27.6359 8.6817 27.3555 8.96213C27.075 9.24256 26.7421 9.46502 26.3757 9.61679C26.0093 9.76855 25.6166 9.84667 25.22 9.84667Z" fill="white"/>
</svg>
