<svg width="261" height="36" viewBox="0 0 261 36" fill="none" xmlns="http://www.w3.org/2000/svg">
<path fill-rule="evenodd" clip-rule="evenodd" d="M7.68 3.66961e-06C6.67117 -0.000982961 5.67205 0.196993 4.73983 0.582599C3.8076 0.968206 2.96057 1.53387 2.24722 2.24722C1.53387 2.96057 0.968206 3.8076 0.582599 4.73983C0.196993 5.67205 -0.000982961 6.67117 3.66961e-06 7.68V36H28.32C29.3288 36.001 30.3279 35.803 31.2602 35.4174C32.1924 35.0318 33.0394 34.4661 33.7528 33.7528C34.4661 33.0394 35.0318 32.1924 35.4174 31.2602C35.803 30.3279 36.001 29.3288 36 28.32V3.66961e-06H7.68ZM7.725 11.0775C7.05092 11.079 6.39157 10.8804 5.83047 10.5068C5.26937 10.1332 4.83178 9.60149 4.57314 8.97901C4.31449 8.35652 4.24643 7.67127 4.37757 7.01006C4.50872 6.34886 4.83316 5.74146 5.30981 5.26481C5.78646 4.78816 6.39386 4.46372 7.05506 4.33257C7.71627 4.20143 8.40152 4.26949 9.02401 4.52814C9.64649 4.78678 10.1782 5.22437 10.5518 5.78547C10.9254 6.34657 11.124 7.00592 11.1225 7.68C11.1225 8.58107 10.7646 9.44524 10.1274 10.0824C9.49024 10.7196 8.62607 11.0775 7.725 11.0775ZM18.045 31.725C17.3716 31.725 16.7132 31.5253 16.1533 31.1511C15.5933 30.777 15.1569 30.2452 14.8992 29.623C14.6415 29.0009 14.574 28.3162 14.7054 27.6557C14.8368 26.9952 15.1611 26.3885 15.6373 25.9123C16.1135 25.4361 16.7202 25.1118 17.3807 24.9804C18.0412 24.849 18.7259 24.9165 19.348 25.1742C19.9702 25.4319 20.502 25.8683 20.8762 26.4283C21.2503 26.9882 21.45 27.6465 21.45 28.32C21.451 28.7674 21.3636 29.2106 21.1928 29.6242C21.0221 30.0378 20.7713 30.4135 20.4549 30.7299C20.1385 31.0463 19.7628 31.2971 19.3492 31.4678C18.9356 31.6386 18.4924 31.726 18.045 31.725ZM18.045 21.3975C17.3734 21.396 16.7172 21.1955 16.1595 20.8213C15.6018 20.4471 15.1675 19.9159 14.9115 19.295C14.6555 18.674 14.5893 17.9911 14.7212 17.3326C14.8531 16.674 15.1773 16.0694 15.6528 15.595C16.1282 15.1206 16.7336 14.7977 17.3924 14.6672C18.0513 14.5368 18.734 14.6045 19.3544 14.8618C19.9748 15.1192 20.5049 15.5547 20.8779 16.1132C21.2509 16.6718 21.45 17.3284 21.45 18C21.45 18.4468 21.3619 18.8892 21.1907 19.3019C21.0195 19.7146 20.7685 20.0895 20.4522 20.4051C20.136 20.7206 19.7605 20.9707 19.3475 21.141C18.9344 21.3113 18.4918 21.3985 18.045 21.3975ZM18.045 11.0775C17.3712 11.0775 16.7126 10.8776 16.1525 10.5031C15.5924 10.1287 15.156 9.59642 14.8985 8.9738C14.641 8.35118 14.574 7.66617 14.706 7.00546C14.838 6.34475 15.163 5.73805 15.64 5.26215C16.1169 4.78625 16.7243 4.46255 17.3853 4.33202C18.0463 4.20148 18.7312 4.26998 19.3532 4.52885C19.9753 4.78772 20.5066 5.22531 20.8798 5.78625C21.253 6.34718 21.4515 7.00624 21.45 7.68C21.45 8.1268 21.3619 8.56921 21.1907 8.9819C21.0195 9.3946 20.7685 9.76947 20.4522 10.0851C20.136 10.4006 19.7605 10.6507 19.3475 10.821C18.9344 10.9913 18.4918 11.0785 18.045 11.0775ZM28.3725 31.725C27.6987 31.7265 27.0397 31.528 26.4787 31.1548C25.9178 30.7816 25.4802 30.2503 25.2213 29.6282C24.9625 29.0062 24.894 28.3213 25.0245 27.6603C25.155 26.9993 25.4787 26.3919 25.9546 25.915C26.4305 25.438 27.0372 25.113 27.698 24.981C28.3587 24.849 29.0437 24.916 29.6663 25.1735C30.2889 25.431 30.8211 25.8674 31.1956 26.4275C31.5701 26.9876 31.77 27.6462 31.77 28.32C31.77 29.2218 31.4123 30.0867 30.7753 30.725C30.1384 31.3634 29.2743 31.723 28.3725 31.725ZM28.3725 11.0775C27.6984 11.079 27.0391 10.8804 26.478 10.5068C25.9169 10.1332 25.4793 9.60149 25.2206 8.97901C24.962 8.35652 24.8939 7.67127 25.0251 7.01006C25.1562 6.34886 25.4807 5.74146 25.9573 5.26481C26.434 4.78816 27.0414 4.46372 27.7026 4.33257C28.3638 4.20143 29.049 4.26949 29.6715 4.52814C30.294 4.78678 30.8257 5.22437 31.1993 5.78547C31.5729 6.34657 31.7715 7.00592 31.77 7.68C31.77 8.12617 31.6821 8.56796 31.5114 8.98017C31.3406 9.39237 31.0904 9.76691 30.7749 10.0824C30.4594 10.3979 30.0849 10.6481 29.6727 10.8189C29.2605 10.9896 28.8187 11.0775 28.3725 11.0775Z" fill="white"/>
<path d="M64.35 4.5V9.84H57.8175V31.485H51.5775V9.84H45V9.225C45 5.7675 46.3125 4.5 49.6875 4.5H64.35Z" fill="white"/>
<path d="M74.07 20.7975V31.5H67.845V10.8975V9.2925C67.8375 5.865 69.165 4.5 72.5175 4.5H79.425C81.1739 4.43382 82.9201 4.688 84.5775 5.25C85.9264 5.80279 87.0568 6.78292 87.795 8.04C88.6386 9.38853 89.0808 10.9494 89.07 12.54C89.07 15.7875 87.57 18.105 84.5025 19.515L89.37 31.5H82.5525L78.495 20.805L74.07 20.7975ZM74.07 9.315V16.185H77.82C78.7278 16.2237 79.6366 16.1354 80.52 15.9225C81.1358 15.7016 81.6626 15.2855 82.02 14.7375C82.456 14.1222 82.6845 13.384 82.6725 12.63C82.6806 11.9044 82.4515 11.1959 82.02 10.6125C81.6816 10.0945 81.1761 9.70811 80.5875 9.5175C79.63 9.34632 78.657 9.27844 77.685 9.315H74.07Z" fill="white"/>
<path d="M107.632 4.5L115.882 31.5H109.237L107.632 25.95H99.1124L97.4549 31.5H92.0474L98.4974 10.83L98.9924 9.255C99.8399 6.525 101.415 4.5 104.16 4.5H107.632ZM100.597 20.9475H106.192L103.395 11.475L100.597 20.9475Z" fill="white"/>
<path d="M132 4.49999H137.408L130.958 25.17L130.5 26.76C129.653 29.475 128.078 31.4925 125.333 31.4925H121.853L113.603 4.49249H120.248C122.173 11.1675 124.125 17.8375 126.105 24.5025C128.035 17.8375 130 11.17 132 4.49999Z" fill="white"/>
<path d="M158.812 9.65249H146.25V15.18H156.135V20.25H146.25V26.145H158.82V31.5H139.965V9.29999C139.965 5.85749 141.3 4.50749 144.652 4.50749H158.812V9.65249Z" fill="white"/>
<path d="M169.628 26.16H180.128V31.5H163.373V10.9425V9.32999C163.373 5.87999 164.693 4.50749 168.068 4.50749H169.635V26.16H169.628Z" fill="white"/>
<path d="M190.627 26.16H201.127V31.5H184.365V9.33C184.365 5.8725 185.7 4.5 189.06 4.5H190.627V26.16ZM260.977 9.66H248.407V15.2025H258.307V20.25H248.407V26.145H261V31.5H242.137V9.2925C242.137 5.865 243.465 4.5 246.825 4.5H261V9.645L260.977 9.66ZM236.872 4.5V31.5H231.622L221.25 13.2675L221.317 31.5H216.585V10.8975V9.2925C216.562 5.8575 217.905 4.5 221.25 4.5H223.215L232.215 20.415L232.102 4.5H236.872ZM211.282 4.5V31.5H205.117V10.905V9.315C205.117 5.9025 206.4 4.5 209.752 4.5H211.282Z" fill="white"/>
</svg>
